<svg xmlns="http://www.w3.org/2000/svg" viewbox="0 0 61 79" width="61" height="79"><defs></defs><g transform="matrix(1, -0, -0, 1, -19.950617283950685, -10.271604938271654)">
<g transform="matrix(1, 0, 0, 1, 0, 0)">
	<g class="artboard" transform="matrix(1, 0, 0, 1, 0, 0)">
		<path class="vector-data" d="M28.44444444444442,10.271604938271654C28.44444444444442,10.271604938271654 81.77777777777777,10.271604938271654 81.77777777777777,10.271604938271654 C81.77777777777777,10.271604938271654 81.77777777777777,81.9753086419754 81.77777777777777,81.9753086419754 C81.77777777777777,81.9753086419754 28.44444444444442,81.9753086419754 28.44444444444442,81.9753086419754 C28.44444444444442,81.9753086419754 28.44444444444442,10.271604938271654 28.44444444444442,10.271604938271654 Z" fill="#FFFFFF" stroke="#000000" stroke-width="5" stroke-dasharray="none" stroke-dashoffset="0" stroke-linecap="butt" stroke-linejoin="round" stroke-miterlimit="4" />
		<path class="vector-data" d="M19.950617283950685,22.123456790123413C19.950617283950685,22.123456790123413 69.3333333333334,22.123456790123413 69.3333333333334,22.123456790123413 C69.3333333333334,22.123456790123413 69.3333333333334,89.28395061728389 69.3333333333334,89.28395061728389 C69.3333333333334,89.28395061728389 19.950617283950685,89.28395061728389 19.950617283950685,89.28395061728389 C19.950617283950685,89.28395061728389 19.950617283950685,22.123456790123413 19.950617283950685,22.123456790123413 Z" fill="#FFFFFF" stroke="#000000" stroke-width="5" stroke-dasharray="none" stroke-dashoffset="0" stroke-linecap="butt" stroke-linejoin="round" stroke-miterlimit="4" />
		<path class="vector-data" d="M41.48148283806379,38.6934107949733" fill="none" stroke="#000000" stroke-width="5" stroke-dasharray="none" stroke-dashoffset="0" stroke-linecap="butt" stroke-linejoin="miter" stroke-miterlimit="4" />
		<path class="vector-data" d="M38.51851851851855,55.67908984815011" fill="none" stroke="#000000" stroke-width="5" stroke-dasharray="none" stroke-dashoffset="0" stroke-linecap="round" stroke-linejoin="round" stroke-miterlimit="4" />
		<path class="vector-data" d="M44.04938316505627,44.839506177156686C44.04938316505627,44.839506177156686 44.0493822670425,65.3836656993667 44.0493822670425,65.3836656993667 " fill="none" stroke="#000000" stroke-width="5" stroke-dasharray="none" stroke-dashoffset="0" stroke-linecap="round" stroke-linejoin="bevel" stroke-miterlimit="4" />
		<path class="vector-data" d="M33.67853752284553,54.61775877345069C33.67853752284553,54.61775877345069 54.22269704505557,54.61775877345069 54.22269704505557,54.61775877345069 " fill="none" stroke="#000000" stroke-width="5" stroke-dasharray="none" stroke-dashoffset="0" stroke-linecap="round" stroke-linejoin="bevel" stroke-miterlimit="4" />
	</g>
</g></g></svg>