<svg xmlns="http://www.w3.org/2000/svg" viewbox="0 0 100 100" width="100" height="100"><defs></defs><g transform="matrix(1, -0, -0, 1, -0, -0)">
<g transform="matrix(1, 0, 0, 1, 0, 0)">
	<rect class="artboard-bg" fill="#FFFFFFFF" x="0" y="0" width="100" height="100"/>
	<g class="artboard" transform="matrix(1, 0, 0, 1, 0, 0)">
		<path class="vector-data" d="M49.99999999999999,24.32098765432101C64.16928812074505,24.32098765432101 75.67901234567897,35.83071187925496 75.67901234567897,50.00000000000001 C75.67901234567897,64.16928812074507 64.16928812074505,75.67901234567903 49.99999999999999,75.67901234567903 C35.830711879254935,75.67901234567903 24.320987654320973,64.16928812074507 24.320987654320973,50.00000000000001 C24.320987654320973,35.83071187925496 35.830711879254935,24.32098765432101 49.99999999999999,24.32098765432101 Z" fill="#FFFFFF" stroke="#000000" stroke-width="10" stroke-dasharray="none" stroke-dashoffset="0" stroke-linecap="butt" stroke-linejoin="miter" stroke-miterlimit="4" />
		<path class="vector-data" d="M50.00000032783541,24.000642318985108C50.00000032783541,24.000642318985108 49.999999672164556,9.000642318985122 49.999999672164556,9.000642318985122 " fill="none" stroke="#000000" stroke-width="20" stroke-dasharray="none" stroke-dashoffset="0" stroke-linecap="butt" stroke-linejoin="miter" stroke-miterlimit="4" />
		<path class="vector-data" d="M75.67901234567898,50.000000000000036C75.67901234567898,50.000000000000036 90.67901234567898,50.000000000000036 90.67901234567898,50.000000000000036 " fill="none" stroke="#000000" stroke-width="20" stroke-dasharray="none" stroke-dashoffset="0" stroke-linecap="butt" stroke-linejoin="miter" stroke-miterlimit="4" />
		<path class="vector-data" d="M66.84017777402603,33.15982261233175C66.84017777402603,33.15982261233175 77.44677926000959,22.553220662718882 77.44677926000959,22.553220662718882 " fill="none" stroke="#000000" stroke-width="20" stroke-dasharray="none" stroke-dashoffset="0" stroke-linecap="butt" stroke-linejoin="miter" stroke-miterlimit="4" />
		<path class="vector-data" d="M0.30384615384612346,-1.9506172839505673" fill="none" stroke="#000000" stroke-width="5" stroke-dasharray="none" stroke-dashoffset="0" stroke-linecap="butt" stroke-linejoin="miter" stroke-miterlimit="4" />
		<path class="vector-data" d="M68.49829541109565,67.8010411713355C68.49829541109565,67.8010411713355 79.1048968970792,78.40764312094835 79.1048968970792,78.40764312094835 " fill="none" stroke="#000000" stroke-width="20" stroke-dasharray="none" stroke-dashoffset="0" stroke-linecap="butt" stroke-linejoin="miter" stroke-miterlimit="4" />
		<path class="vector-data" d="M19.543159759168077,23.112110810386632C19.543159759168077,23.112110810386632 30.149761245151637,33.71871275999949 30.149761245151637,33.71871275999949 " fill="none" stroke="#000000" stroke-width="20" stroke-dasharray="none" stroke-dashoffset="0" stroke-linecap="butt" stroke-linejoin="miter" stroke-miterlimit="4" />
		<path class="vector-data" d="M20.94861517643927,78.46306861914755C20.94861517643927,78.46306861914755 31.5552166624228,67.85646666953471 31.5552166624228,67.85646666953471 " fill="none" stroke="#000000" stroke-width="20" stroke-dasharray="none" stroke-dashoffset="0" stroke-linecap="butt" stroke-linejoin="miter" stroke-miterlimit="4" />
		<path class="vector-data" d="M9.320987654321115,50.00000000000004C9.320987654321115,50.00000000000004 24.320987654321137,50.00000000000004 24.320987654321137,50.00000000000004 " fill="none" stroke="#000000" stroke-width="20" stroke-dasharray="none" stroke-dashoffset="0" stroke-linecap="butt" stroke-linejoin="miter" stroke-miterlimit="4" />
		<path class="vector-data" d="M50.000000655670874,90.67901234567913C50.000000655670874,90.67901234567913 50.00000000000002,75.67901234567908 50.00000000000002,75.67901234567908 " fill="none" stroke="#000000" stroke-width="20" stroke-dasharray="none" stroke-dashoffset="0" stroke-linecap="butt" stroke-linejoin="miter" stroke-miterlimit="4" />
	</g>
</g></g></svg>